<?xml version="1.0" encoding="utf-8"?>
<!-- Generator: Adobe Illustrator 23.0.3, SVG Export Plug-In . SVG Version: 6.00 Build 0)  -->
<svg version="1.1" xmlns="http://www.w3.org/2000/svg" xmlns:xlink="http://www.w3.org/1999/xlink" x="0px" y="0px"
	 viewBox="0 0 408 720" style="enable-background:new 0 0 408 720;" xml:space="preserve">
<style type="text/css">
	.st0{fill:#C2C6C9;stroke:#010101;stroke-width:3;stroke-miterlimit:10;}
	.st1{fill:#FFFFFF;stroke:#010101;stroke-width:3;stroke-miterlimit:10;}
	.st2{fill:#C2C6C9;}
	.st3{fill:#010101;}
	.st4{fill:#FFFFFF;}
	.st5{fill:#F6BFDF;}
	.st6{fill:#010101;stroke:#010101;stroke-width:3;stroke-miterlimit:10;}
	.st7{fill:#FBFCFC;}
	.st8{fill:#F7F8F8;}
	.st9{fill:#E3E3E3;}
	.st10{fill:#FAFBFC;}
	.st11{fill:#F6F6F6;}
	.st12{fill:#E6E6E5;}
	.st13{fill:#ACB3B7;}
</style>
<g id="ear">
	<g>
		<path class="st0" d="M103.51,242.33c-18.98-10.29-22.56-31.25-11.09-42.97c9.48-9.7,28.44-12.25,43.99-4.35"/>
		<path class="st1" d="M108,238.84c-16.25-8.81-19.32-26.76-9.49-36.8c8.12-8.3,24.36-10.49,37.67-3.72"/>
	</g>
</g>
<g id="Layer_31">
	<g>
		<path class="st2" d="M227.44,171.34c-1.28-3.97-0.49-8.55,2.04-11.87l-9.02,6.21l6.9-12.45c-8.04,3.71-13.17,9.22-15.37,17.79
			c1.02-3.69,1.03-7.66,0.01-11.35c-0.97,3.44-2.81,6.63-5.32,9.18c2.14-3.5-2.78,8.05,0.44-11.66c-0.76,6.91-1.74,4.86-5.45,10.73
			l-5.43-15.17c0.2,4.91-0.72,9.86-2.67,14.36c0.07-6.15-0.79-12.31-2.53-18.22c0.13,4.31-0.83,8.27-1.43,11.68
			c-0.18,1.05-1.59,1.26-2.07,0.31c-2.54-4.97-6.01-10.42-9.01-14.81c3.96,6.67,4.8,21.91,5.57,29.63
			c-4.69-6.57-9.99-16.52-15.18-21.64c4.3,10.01,4.67,16.29,5.63,26.7c-2.93-7.39-8.81-14.4-12.97-21.95
			c2.81,10.13,3.96,19.86,5.62,24.21c-11.85-6.18-18.84-11.99-33.03-18.39c6.15,5.2,12.57,14.73,18.78,23.65
			c-5.9,1.08-14.61-0.9-19.02-4.96c3.12,2.62,6.25,5.24,9.37,7.85c-8.78-3.67-15.93-11.1-19.26-20.01
			c0.71,9.68,4.74,19.08,11.25,26.27c-7.27-2.13-14.17-5.55-20.27-10.06l18.92,20.05c-9.18,5.49-21.08,6.15-30.8,1.69
			c5.19,4.05,11.88,6.12,18.45,5.7c0.7,4.52-3.43,8.74-7.95,9.49c-4.52,0.75-9.08-1.13-12.92-3.62c3.29,4.95,8.33,8.7,14,10.45
			c-8.54,10.49-21.85,16.93-35.37,17.11c1.34,3.42,4.04,4.72,7.71,4.87c4.03,0.16,4.6,0.66,5.91,0.66
			c-2.35,4.44-2.51,5.03-6.43,8.17c3.78,0.4,7.64-0.06,11.22-1.33c-1.58,4.15-4.77,7.66-8.76,9.62l6.1,3.43
			c-6.17,3.63-12.45,7.09-18.82,10.37c6.9,0.18,13.82-0.79,20.4-2.86c-2.22,3.2-5.4,5.72-9.02,7.17l8.28-0.47
			c-2.11,6.39-6.3,12.07-11.78,15.97c5.24-2.14,10.08-5.24,14.22-9.1c0.87,8.57-3.84,17.32-7.57,23.97
			c1.29-0.62,4.68,1.12,3.73,3.27c-1.1,2.48-3.78,4.56-3.32,7.24l6.79-0.31c-0.42,7.42-7.13,12.6-12.56,17.68
			s-10.25,13.24-6.27,19.51c3.06-8.19,11.51-14.04,20.25-14.02c-5.01,20.83-12.41,41.08-21.98,60.25c-0.64-1.16,1.46-2.22,2.45-1.34
			s0.94,2.42,0.75,3.73c-1.27,9.04-4.91,17.73-10.47,24.97c2.91,0.13,5.85-1.18,7.72-3.42c2.57,11.97,10.98,15.84,7.53,27.59
			c2.15-3.71,3.76-7.73,4.77-11.9c3.03,10.6,0.68,22.6-6.14,31.27l5.51-4.62l-0.83,17.1c1.61-1.61,2.85-3.6,3.59-5.76
			c0.12,4.15,1.26,8.26,3.28,11.88c1.4-1.92,3.9-2.98,6.25-2.63c-0.59,3.41,0.5,7.07,2.88,9.59l2.4-4.8
			c2.78,5.44,4.14,11.59,3.91,17.7l2.28-10.3c3.19,4.49,4.95,9.98,4.98,15.48c1.47-2.64,2.1-5.75,1.76-8.75
			c3.28,2.47,5.73,6.02,6.89,9.95l1.81-8.19c1.8,4.38,3.1,8.98,3.84,13.66l7.5-6.84c7.57,9.27,10.16,23.98,22.1,24.88l0.05,0.05
			c9.14,1.68,17.68,3.34,26.82,5.01c4.2,0.77,8.46,1.55,12.71,1.19c3.08-0.25,6.16-1.1,9.22-0.71c1.08,0.14,2.13,0.43,3.21,0.57
			c1.64,0.22,3.31,0.09,4.96-0.03c9.08-0.69,18.15-1.38,27.23-2.07c7.45-0.57-6.87-9.29,0.37-7.44c1.59,0.41,3.26,0.93,4.85,0.52
			c1.88-0.48,3.18-2.13,4.76-3.25c6.26-4.43,17.1-0.87,21.51-6.59c0.33-0.43,0.97-0.43,1.27,0.02l1.23,1.83
			c0.21,0.31,0.61,0.43,0.95,0.28c4.55-1.94,9.14-3.98,12.87-7.22c2.9-2.52,5.23-5.92,6.05-9.61c0.17-0.76,1.25-0.8,1.49-0.05
			l1.55,4.88c0.16,0.51,0.77,0.71,1.2,0.39c3.69-2.7,5.81-7.26,6.48-11.82c0.52-3.5,0.3-7.04-0.12-10.56
			c-0.11-0.88,1.12-1.24,1.48-0.42c0.94,2.16,1.59,4.43,1.94,6.76c0.11,0.71,1.03,0.91,1.42,0.31c5.49-8.37,4.42-19.4,2.1-29.7
			c-0.22-0.97,1.22-1.36,1.49-0.4c0.15,0.52,0.27,1.06,0.36,1.59c0.13,0.82,1.28,0.91,1.52,0.11c1.49-5.09,1.9-10.49,1.17-15.75
			c-0.11-0.82,0.96-1.24,1.41-0.54c2.2,3.36,4.12,6.91,5.73,10.59c0.32,0.73,1.4,0.57,1.48-0.22c1.15-11.99-1.59-24.34-7.67-34.74
			c-0.45-0.76,0.53-1.57,1.18-0.97c2.17,1.98,3.93,4.42,5.12,7.11c0.31,0.71,1.37,0.55,1.48-0.22c1.62-11.32-2.22-23.35-10.24-31.53
			c-2.12-2.17-4.68-5.17-4.02-7.78c0.15-0.6,0.95-0.76,1.35-0.28c3.56,4.33,6.75,8.97,9.51,13.85c0.35,0.62,1.3,0.47,1.43-0.23
			c1.94-10.66,17.76-13.12,10.96-22.08c-0.44-0.58,0.09-1.4,0.8-1.22c0.79,0.2,1.61,0.31,2.42,0.31c0.81,0.01,1.07-1.06,0.37-1.46
			c-2.45-1.39-4.36-4.54-4.99-7.49c-0.96-4.53-0.92-9.81-4.38-12.9c1.65,1.02,3.88,1,5.51-0.06l-12.63-25.7l6.83,6.58l2.3,4.14
			c0.99-6.44-2.8-12.63-7.01-17.61c-4.21-4.98-9.15-9.67-11.22-15.85c-1.56-4.65-2.17-10.81-6.85-12.3
			c7.36,2.48,13.37,8.66,15.64,16.09c-1.51-12.26-9.29-22.69-16.8-32.49c3.28,1.74,6.76,3.12,10.35,4.1
			c-1.9-3.16-2.93-6.84-2.96-10.53c0-0.59,0.05-1.25,0.48-1.64c0.48-0.44,1.23-0.37,1.88-0.28c4.94,0.74,9.88,1.48,14.81,2.22
			c-6.33-2.96-12.01-7.3-16.54-12.63c-1.38-1.63-2.13-4.91-0.01-5.23c5.86,5.35,12.8,11.07,20.68,10.12
			c-10.52-7.8-18.88-18.48-23.92-30.57l13.97,8.43c-1.74-5.51-4.49-10.7-8.05-15.24c6.46,5.06-5.91-4.3,2.29-4.08
			c-14.07-7.75-5.95-6.32-15.46-19.26c3.8,1.95,8.4,2.28,12.44,0.89c-7.38-4.3-14.48-9.09-21.23-14.33
			c4.5-1.04,9.12-1.56,13.74-1.55c-4.52-5.25-12.04-7.71-18.79-6.14c7.57-4.18,13.42-11.38,15.97-19.65
			c-6.57,8.17-17.44,12.67-27.86,11.53c2.74-6.1,12.1-8.57,15.07-12.09l-14.99,7.22c-1.2,0.58-2.63,0.64-3.81,0.02
			c-2.23-1.16-1.86-3.58-1.34-5.57c1.47-5.64,3.42-11.16,5.83-16.48c-3.21,5.58-7.36,10.62-12.22,14.84c-1.12,0.98-2.8,1.17-4,0.3
			c-1.38-1-1.06-2.71-0.62-4.12c2.15-6.91,6.18-13.24,11.53-18.11c-7.86-1-11.72,9.94-19.1,12.84c-0.45,0.18-0.95,0.24-1.42,0.14
			c-1.49-0.31-1.7-1.87-1.7-3.17c0.01-11.04-3.08-10.22,5.16-17.58c-13.81,6.72-12.23,11.49-25.17,19.74
			c2.79-5.6,4.71-11.63,5.67-17.81c-1.74,7.63-7,14.38-13.97,17.94"/>
		<g>
			<path class="st3" d="M228.4,171.08c-1.12-3.92-0.42-7.8,1.94-11.11c0.57-0.8-0.56-1.91-1.36-1.36c-3.01,2.07-6.02,4.14-9.02,6.21
				c0.45,0.45,0.91,0.9,1.36,1.36c2.3-4.15,4.6-8.3,6.9-12.45c0.51-0.91-0.48-1.77-1.36-1.36c-7.94,3.75-13.53,9.84-15.83,18.39
				c0.64,0.18,1.28,0.35,1.91,0.53c1.01-3.97,1.01-7.91,0.01-11.88c-0.25-0.97-1.64-0.91-1.91,0c-1.01,3.33-2.67,6.21-5.06,8.75
				c0.52,0.4,1.04,0.8,1.56,1.2c0.61-0.98-1.06-1.49-1.27-1.36c-0.7,0.42,1.01,0.26,0.85,0.44c0.17-0.2-0.09-2.53-0.07-2.89
				c0.17-2.71,0.6-5.41,1.04-8.09c-0.65-0.09-1.3-0.18-1.95-0.26c-0.24,2.02-0.47,3.96-1.76,5.59c-1.22,1.54-2.48,2.97-3.56,4.63
				c0.6,0.08,1.21,0.16,1.81,0.24c-1.81-5.06-3.62-10.11-5.43-15.17c-0.36-1-1.98-0.92-1.95,0.26c0.13,4.9-0.76,9.58-2.64,14.1
				c0.65,0.09,1.3,0.18,1.95,0.26c0.02-6.27-0.83-12.45-2.56-18.48c-0.3-1.06-1.96-0.87-1.95,0.26c0.03,2.55-0.24,5.05-0.68,7.56
				c-0.17,0.96-0.21,2.21-0.58,3.12c-0.33,0.8-0.06,0.8-0.78,0.06c-0.45-0.46-0.72-1.34-1.03-1.9c-2.32-4.18-4.91-8.21-7.6-12.16
				c-0.71-1.05-2.35-0.12-1.71,1c2.41,4.25,3.2,9.42,3.88,14.19c0.71,4.96,1.06,9.96,1.55,14.94c0.62-0.17,1.23-0.33,1.85-0.5
				c-5.1-7.22-9.08-15.5-15.34-21.84c-0.85-0.86-1.97,0.23-1.56,1.2c3.59,8.48,4.66,17.11,5.5,26.2c0.65-0.09,1.3-0.18,1.95-0.26
				c-3.28-7.99-8.88-14.69-13.07-22.18c-0.55-0.98-2.11-0.32-1.81,0.76c1.29,4.71,2.29,9.49,3.24,14.27
				c0.66,3.32,1.21,6.74,2.38,9.93c0.49-0.37,0.97-0.75,1.46-1.12c-11.18-5.88-21.5-13.15-33.03-18.39
				c-0.94-0.43-2.12,0.76-1.2,1.56c7.54,6.52,12.98,15.34,18.63,23.44c0.2-0.49,0.4-0.97,0.59-1.46
				c-6.04,0.98-13.39-0.63-18.05-4.71c-0.47,0.47-0.94,0.94-1.4,1.4c3.12,2.62,6.25,5.24,9.37,7.85c0.4-0.52,0.8-1.04,1.2-1.56
				c-8.6-3.71-15.42-10.66-18.81-19.42c-0.37-0.96-2.05-0.94-1.95,0.26c0.83,10.05,4.84,19.44,11.54,26.97
				c0.32-0.55,0.64-1.11,0.97-1.66c-7.22-2.17-13.93-5.52-20.03-9.96c-0.94-0.68-1.95,0.77-1.2,1.56
				c6.31,6.68,12.62,13.37,18.92,20.05c0.07-0.52,0.13-1.04,0.2-1.56c-9.05,5.26-20.22,5.93-29.8,1.69c-1.18-0.52-2.02,0.94-1,1.71
				c5.47,4.13,12.11,6.16,18.95,5.84c-0.33-0.33-0.66-0.66-0.99-0.99c0.42,4.07-2.71,7.46-6.55,8.4c-4.51,1.1-9.1-1.03-12.83-3.38
				c-0.81-0.51-1.93,0.53-1.36,1.36c3.57,5.2,8.59,8.96,14.6,10.91c-0.15-0.55-0.29-1.11-0.44-1.66
				c-8.55,10.32-21.26,16.52-34.67,16.82c-0.82,0.02-1.15,0.81-0.86,1.49c1.26,2.9,3.55,4.63,6.66,5.16
				c1.72,0.29,3.48,0.21,5.21,0.48c0.87,0.13,1.72,0.35,2.61,0.37c-0.29-0.5-0.57-1-0.86-1.49c-1.72,3.27-3.39,5.63-6.28,7.97
				c-0.74,0.6-0.06,1.63,0.7,1.69c3.93,0.35,7.74-0.11,11.49-1.36c-0.41-0.41-0.81-0.81-1.22-1.22c-1.61,3.98-4.51,7.06-8.3,9.03
				c-0.66,0.34-0.63,1.36,0,1.71c2.03,1.14,4.07,2.29,6.1,3.43c0-0.57,0-1.14,0-1.71c-6.18,3.62-12.45,7.08-18.82,10.37
				c-0.9,0.47-0.44,1.83,0.5,1.85c7.02,0.13,13.95-0.84,20.66-2.89c-0.37-0.49-0.75-0.97-1.12-1.46c-2.17,2.99-5.03,5.28-8.43,6.71
				c-0.93,0.39-0.96,2.02,0.26,1.95c2.76-0.16,5.52-0.32,8.28-0.47c-0.32-0.42-0.64-0.84-0.96-1.26
				c-2.13,6.19-6.04,11.51-11.33,15.37c-0.82,0.6-0.36,2.28,0.76,1.81c5.42-2.27,10.32-5.38,14.65-9.35
				c-0.56-0.23-1.13-0.47-1.69-0.7c0.68,8.51-3.4,16.27-7.44,23.47c-0.41,0.73,0.27,1.72,1.12,1.46c1.22-0.38,2.25,0.52,2.3,1.63
				c0.06,1.25-0.88,2.16-1.55,3.15c-1,1.48-1.75,2.94-1.6,4.77c0.04,0.52,0.42,1.02,0.99,0.99c2.26-0.1,4.53-0.21,6.79-0.31
				c-0.33-0.33-0.66-0.66-0.99-0.99c-0.72,8.5-8.94,13.13-14.12,18.88c-4.52,5.01-8.34,12.33-4.57,18.82
				c0.46,0.8,1.51,0.52,1.81-0.24c3.1-7.86,10.87-13.15,19.29-13.29c-0.32-0.42-0.64-0.84-0.96-1.26
				c-5.03,20.76-12.37,40.89-21.88,60.01c0.6,0.08,1.21,0.16,1.81,0.24c0.25,0.9,1.23,0.92,1.33,1.99c0.06,0.64-0.2,1.46-0.31,2.1
				c-0.19,1.12-0.43,2.24-0.69,3.35c-0.57,2.35-1.3,4.68-2.19,6.93c-1.81,4.58-4.26,8.84-7.23,12.76c-0.47,0.62,0.17,1.49,0.86,1.49
				c3.3,0.01,6.21-1.26,8.42-3.71c-0.55-0.15-1.11-0.29-1.66-0.44c1.08,4.73,3.31,8.8,5.56,13.04c2.44,4.6,3.38,8.9,1.97,14.02
				c-0.3,1.08,1.25,1.75,1.81,0.76c2.16-3.83,3.79-7.87,4.87-12.14c-0.64,0-1.28,0-1.91,0c2.88,10.55,0.61,21.84-6.04,30.51
				c-0.73,0.95,0.76,1.87,1.56,1.2c1.84-1.54,3.67-3.08,5.51-4.62c-0.56-0.23-1.13-0.47-1.69-0.7c-0.28,5.7-0.55,11.4-0.83,17.1
				c-0.04,0.86,1.12,1.31,1.69,0.7c1.73-1.82,2.97-3.84,3.84-6.2c-0.65-0.09-1.3-0.18-1.95-0.26c0.21,4.39,1.34,8.51,3.41,12.38
				c0.28,0.52,1.16,0.69,1.56,0.2c1.45-1.77,3.27-2.54,5.55-2.34c-0.32-0.42-0.64-0.84-0.96-1.26c-0.54,3.93,0.51,7.56,3.13,10.56
				c0.41,0.46,1.28,0.35,1.56-0.2c0.8-1.6,1.6-3.2,2.4-4.8c-0.57,0-1.14,0-1.71,0c2.67,5.39,3.92,11.19,3.77,17.2
				c-0.03,1.1,1.7,1.37,1.95,0.26c0.76-3.43,1.52-6.87,2.28-10.3c-0.6,0.08-1.21,0.16-1.81,0.24c3.07,4.48,4.73,9.55,4.85,14.98
				c0.02,0.94,1.38,1.41,1.85,0.5c1.51-2.91,2.17-5.98,1.9-9.26c-0.56,0.23-1.13,0.47-1.69,0.7c3.16,2.49,5.41,5.67,6.63,9.52
				c0.28,0.88,1.69,1,1.91,0c0.6-2.73,1.21-5.46,1.81-8.19c-0.64,0-1.28,0-1.91,0c1.78,4.42,3.06,8.96,3.84,13.66
				c0.13,0.78,1.16,0.89,1.66,0.44c2.5-2.28,5-4.56,7.5-6.84c-0.47,0-0.94,0-1.4,0c4.86,6.07,7.25,13.78,12.37,19.66
				c2.07,2.38,4.7,4.29,7.79,5.08c1.61,0.41,2.28,0.41,3.89,0.71c3.04,0.56,6.07,1.13,9.1,1.7c5.74,1.08,11.47,2.19,17.22,3.22
				c2.67,0.48,5.36,0.94,8.08,1.09c2.95,0.16,5.76-0.3,8.68-0.64c2.7-0.32,5.03,0.14,7.69,0.46c2.92,0.35,5.94-0.11,8.85-0.33
				c5.83-0.44,11.67-0.89,17.5-1.33c2.24-0.17,4.69-0.06,6.88-0.58c0.72-0.17,1.48-0.48,1.88-1.15c0.84-1.4-0.32-2.99-1.16-4.07
				c-0.54-0.69-1.13-1.32-1.69-1.99c-0.14-0.17-0.51-0.8-0.68-0.87c-0.07-0.03-0.11-0.27-0.15-0.28c-0.14,0.26-0.27,0.53-0.41,0.79
				c0.18,0,0.35,0.02,0.53,0.05c1.12,0.76,3.87,0.98,5.2,0.84c2.05-0.21,3.46-1.49,4.99-2.75c6.16-5.1,15.4-1.29,21.46-6.28
				c0.1-0.08,0.92-1.04,0.9-1.04c0.35-0.07-0.03-0.23,0.49,0.35c0.29,0.33,0.45,0.78,0.75,1.11c1.12,1.25,2.15,0.71,3.51,0.12
				c4.65-2.01,9.37-4.27,12.99-7.91c1.42-1.43,2.67-3.07,3.61-4.85c0.43-0.81,0.96-1.79,1.16-2.69c0.17-0.76-0.18-2.01,0.23-0.75
				c0.46,1.42,0.84,5.07,2.74,5.36c1.46,0.22,2.83-1.51,3.66-2.46c1.38-1.58,2.43-3.41,3.2-5.35c0.77-1.95,1.24-3.99,1.46-6.07
				c0.32-3-0.26-5.9-0.26-8.8c0-0.62,0.46,1.47,0.47,1.51c0.18,0.56,0.34,1.13,0.49,1.69c0.23,0.91,0.22,2.25,0.73,3.05
				c0.58,0.92,1.56,1.17,2.5,0.6c1.35-0.82,2.1-3.25,2.66-4.64c0.88-2.19,1.42-4.49,1.71-6.83c0.61-4.81,0.18-9.69-0.63-14.45
				c-0.05-0.3-0.63-4.2-0.82-4.22c-0.8-0.07-0.24,1.16,0.04,1.52c0.61,0.79,1.75,1,2.55,0.36c1.27-1.02,1.39-4,1.62-5.45
				c0.47-2.86,0.63-5.77,0.45-8.66c-0.06-0.9-0.8-2.94,0.28-1.27c0.75,1.17,1.43,2.39,2.09,3.61c0.66,1.22,1.29,2.47,1.88,3.73
				c0.36,0.76,0.6,1.92,1.39,2.38c3.47,2.02,2.95-5.23,2.96-6.57c0.02-5.11-0.64-10.23-1.92-15.17c-1.25-4.8-3.1-9.45-5.5-13.79
				c-0.21-0.39-0.7-0.94,0.13,0.23c0.3,0.42,0.74,0.81,1.06,1.21c0.78,0.97,1.47,2.03,2.06,3.13c0.61,1.14,1.22,2.89,2.88,2.24
				c1.36-0.53,1.27-2.24,1.37-3.46c0.22-2.46,0.18-4.94-0.09-7.39c-0.48-4.32-1.65-8.53-3.48-12.47c-2-4.31-4.81-7.82-7.99-11.29
				c-0.93-1.01-1.86-2.1-2.47-3.35c-0.16-0.32-0.78-1.47-0.23-1.77c0.05-0.03,1.37,1.74,1.49,1.89c1.79,2.34,3.47,4.78,5.04,7.28
				c0.82,1.31,3.78,7.46,5.51,3.33c0.67-1.59,0.94-3.14,1.95-4.62c0.92-1.35,2.07-2.53,3.25-3.65c3.26-3.08,8.92-6.69,7.1-11.96
				c-0.16-0.45-0.81-1.28-0.83-1.72c-0.04-1.23-0.49-0.2-0.15-0.5c0.11-0.09,0.93,0.13,1.07,0.14c1.19,0.08,2.58-0.24,2.58-1.72
				c0-1.46-1.86-2.11-2.68-3.01c-1.97-2.15-2.69-4.82-3.15-7.62c-0.66-4.04-1.17-8.15-4.24-11.14c-0.4,0.52-0.8,1.04-1.2,1.56
				c2.17,1.13,4.36,1.12,6.51-0.06c0.49-0.27,0.59-0.89,0.36-1.36c-4.21-8.57-8.42-17.13-12.63-25.7c-0.52,0.4-1.04,0.8-1.56,1.2
				c1.9,1.83,3.79,3.66,5.69,5.48c1.44,1.39,2.14,2.98,3.28,5.03c0.52,0.94,1.74,0.4,1.85-0.5c1.31-10.6-7.53-17.97-13.45-25.47
				c-1.81-2.29-3.49-4.75-4.54-7.49c-0.75-1.95-1.18-4.01-1.8-6c-1.04-3.36-2.54-6.47-6.02-7.76c-0.18,0.64-0.35,1.28-0.53,1.91
				c7.11,2.52,12.63,8.22,14.95,15.4c0.4,1.25,2.08,0.71,1.91-0.53c-1.69-12.56-9.4-22.94-16.9-32.73c-0.45,0.45-0.9,0.9-1.36,1.36
				c3.39,1.76,6.91,3.16,10.59,4.2c0.84,0.24,1.55-0.71,1.12-1.46c-1.09-1.91-1.94-3.91-2.39-6.07c-0.2-0.95-0.49-2.13-0.41-3.11
				c0.16-1.98,0.73-1.85,2.56-1.59c4.45,0.64,8.89,1.33,13.33,2c1.01,0.15,1.87-1.28,0.76-1.81c-3.84-1.84-7.45-4.09-10.71-6.85
				c-0.84-0.71-9.18-8.28-6.08-9.2c-0.32-0.09-0.64-0.17-0.97-0.26c5.91,5.37,12.86,11.21,21.38,10.41c1.02-0.1,1.3-1.25,0.5-1.85
				c-10.4-7.8-18.5-18.25-23.57-30.21c-0.45,0.45-0.9,0.9-1.36,1.36c4.66,2.81,9.31,5.62,13.97,8.43c0.72,0.43,1.73-0.29,1.46-1.12
				c-1.83-5.61-4.55-10.8-8.15-15.48c-0.52,0.4-1.04,0.8-1.56,1.2c0.65,0.51,1.38,1.3,2.15,1.66c0.71,0.33,1.43-0.07,1.49-0.86
				c0.14-1.72-5.3-4.6-0.64-4.59c0.97,0,1.37-1.37,0.5-1.85c-3.34-1.85-7.67-3.77-9.17-7.56c-1.63-4.11-3.31-7.72-5.94-11.35
				c-0.45,0.45-0.9,0.9-1.36,1.36c4.21,2.01,8.74,2.38,13.2,0.99c0.8-0.25,0.99-1.37,0.24-1.81c-7.38-4.32-14.46-9.1-21.23-14.33
				c-0.08,0.6-0.16,1.21-0.24,1.81c4.45-0.99,8.93-1.49,13.48-1.52c0.89-0.01,1.27-1.06,0.7-1.69c-4.97-5.53-12.49-7.92-19.76-6.4
				c0.25,0.6,0.51,1.21,0.76,1.81c7.84-4.46,13.67-11.66,16.42-20.24c0.29-0.91-1.02-1.74-1.66-0.97
				c-6.63,8.02-16.81,12.23-27.16,11.24c0.29,0.5,0.57,1,0.86,1.49c3.03-6.21,10.58-7.1,14.92-11.89c0.77-0.85-0.19-2.05-1.2-1.56
				c-4.16,2-8.32,4-12.48,6.01c-0.74,0.35-1.47,0.8-2.24,1.08c-0.61,0.23-0.93,0.36-1.68,0.33c-2.36-0.11-2.84-2.03-2.44-4.02
				c1.16-5.76,3.49-11.5,5.88-16.85c0.51-1.14-1.05-2.13-1.71-1c-1.87,3.19-3.99,6.22-6.42,9.01c-1.2,1.37-2.45,2.69-3.77,3.94
				c-0.54,0.52-1.61,1.85-2.27,1.96c-0.97-0.5-1.93-0.99-2.9-1.49c0.05-0.56,0.16-1.11,0.34-1.64c1.9-6.77,6.18-12.93,11.28-17.67
				c0.68-0.63,0.1-1.62-0.7-1.69c-3.76-0.34-6.78,1.67-9.38,4.19c-1.54,1.49-2.93,3.11-4.44,4.62c-1.22,1.22-3.42,3.77-5.24,3.95
				c-2.49,0.24-2.14-1.76-2.18-3.44c-0.03-1.04-0.08-2.09-0.17-3.13c-0.12-1.48-0.37-2.96-0.37-4.45c0-3.42,3.1-5.71,5.43-7.8
				c0.88-0.79-0.24-2.04-1.2-1.56c-4.79,2.37-9.02,5.25-12.75,9.08c-3.88,3.98-7.72,7.63-12.43,10.67c0.45,0.45,0.9,0.9,1.36,1.36
				c2.81-5.72,4.75-11.75,5.77-18.05c0.2-1.23-1.61-1.79-1.91-0.53c-1.82,7.49-6.7,13.74-13.51,17.35c-1.13,0.6-0.13,2.31,1,1.71
				c7.24-3.83,12.49-10.57,14.43-18.53c-0.64-0.18-1.28-0.35-1.91-0.53c-0.99,6.12-2.84,12-5.57,17.57
				c-0.41,0.83,0.46,1.94,1.36,1.36c4.52-2.93,8.39-6.35,12.1-10.23c3.85-4.01,8.08-7.05,13.07-9.52c-0.4-0.52-0.8-1.04-1.2-1.56
				c-2.51,2.25-5.71,4.79-5.99,8.41c-0.13,1.74,0.21,3.51,0.35,5.24c0.18,2.2-0.39,5.22,0.68,7.21c2.37,4.4,8.27-1.16,10.31-3.19
				c3.45-3.44,6.92-8.73,12.42-8.22c-0.23-0.56-0.47-1.13-0.7-1.69c-3.6,3.35-6.66,7.26-8.93,11.63c-1.43,2.74-4.77,8.31-2.63,11.34
				c2.64,3.75,6.74-0.15,8.82-2.2c3.74-3.71,6.94-7.92,9.61-12.47c-0.57-0.33-1.14-0.67-1.71-1c-1.42,3.16-2.71,6.37-3.82,9.66
				c-0.97,2.87-2.22,6.01-2.49,9.05c-0.37,4.25,3.45,6.24,7.15,4.61c5.01-2.21,9.9-4.77,14.83-7.14c-0.4-0.52-0.8-1.04-1.2-1.56
				c-2.19,2.42-5.5,3.71-8.23,5.41c-2.82,1.76-5.51,3.83-7,6.88c-0.35,0.71,0.08,1.42,0.86,1.49c10.81,1.03,21.64-3.45,28.56-11.82
				c-0.55-0.32-1.11-0.64-1.66-0.97c-2.6,8.11-8.11,14.85-15.51,19.06c-1.01,0.57-0.31,2.04,0.76,1.81
				c6.59-1.38,13.34,0.89,17.83,5.89c0.23-0.56,0.47-1.13,0.7-1.69c-4.73,0.03-9.39,0.56-14.01,1.59c-0.93,0.21-0.85,1.34-0.24,1.81
				c6.77,5.23,13.85,10.01,21.23,14.33c0.08-0.6,0.16-1.21,0.24-1.81c-3.94,1.23-7.94,1-11.67-0.79c-0.8-0.38-2,0.47-1.36,1.36
				c1.72,2.38,3.37,4.85,4.53,7.57c0.59,1.39,0.95,2.87,1.59,4.24c1.76,3.81,6.25,5.89,9.7,7.81c0.17-0.62,0.33-1.23,0.5-1.85
				c-2.02-0.01-4.39,0.69-3.8,3.19c0.21,0.91,0.82,1.74,1.38,2.46c0.24,0.31,0.49,0.66,0.78,0.94c0.59,0.57,0.25,0.72,0.3-0.02
				c0.5-0.29,1-0.57,1.49-0.86c-0.62-0.29-1.21-0.93-1.74-1.35c-0.79-0.62-2.31,0.22-1.56,1.2c3.5,4.54,6.17,9.55,7.95,15
				c0.49-0.37,0.97-0.75,1.46-1.12c-4.66-2.81-9.31-5.62-13.97-8.43c-0.93-0.56-1.71,0.51-1.36,1.36
				c5.21,12.3,13.6,22.92,24.28,30.92c0.17-0.62,0.33-1.23,0.5-1.85c-5.7,0.53-10.69-2.19-15.06-5.6c-1.67-1.3-6.14-7.11-7.74-2.86
				c-1.33,3.54,3.02,7.18,5.19,9.22c3.84,3.61,8.23,6.56,12.98,8.84c0.25-0.6,0.51-1.21,0.76-1.81c-3.62-0.54-7.24-1.08-10.86-1.63
				c-1.74-0.26-5.11-1.49-6.69-0.14c-1.39,1.18-0.87,3.7-0.66,5.23c0.41,2.93,1.42,5.66,2.88,8.22c0.37-0.49,0.75-0.97,1.12-1.46
				c-3.51-1-6.87-2.32-10.11-4c-0.79-0.41-2.01,0.51-1.36,1.36c7.4,9.66,15.03,19.86,16.7,32.26c0.64-0.18,1.28-0.35,1.91-0.53
				c-2.54-7.86-8.55-14.02-16.33-16.78c-1.21-0.43-1.71,1.47-0.53,1.91c3.78,1.4,4.54,6.07,5.52,9.49
				c1.12,3.95,2.94,7.36,5.45,10.61c5.67,7.32,14.65,14.4,13.38,24.7c0.62-0.17,1.23-0.33,1.85-0.5c-1.01-1.83-1.82-3.73-3.33-5.19
				c-1.98-1.91-3.97-3.82-5.95-5.73c-0.84-0.81-2.05,0.21-1.56,1.2c4.21,8.57,8.42,17.13,12.63,25.7c0.12-0.45,0.24-0.9,0.36-1.36
				c-1.51,0.83-2.97,0.85-4.51,0.06c-0.97-0.51-2.04,0.74-1.2,1.56c3.6,3.5,3.03,8.71,4.31,13.2c0.48,1.68,1.27,3.29,2.33,4.67
				c0.26,0.34,2.12,1.89,2.13,2.13c0.01,0.26,0.85,0.1-0.55-0.01c-0.47-0.04-0.94-0.24-1.42-0.12c-3.24,0.76,0.19,4.24,0.36,5.94
				c0.26,2.48-1.93,4.43-3.58,5.95c-2.16,1.99-4.45,3.84-6.25,6.18c-0.79,1.04-1.47,2.14-1.98,3.35c-0.18,0.43-0.63,1.96-0.76,1.92
				c-0.51-0.14-1.61-2.66-1.91-3.15c-1.41-2.25-2.92-4.44-4.51-6.57c-0.86-1.15-2.24-3.81-3.68-4.18c-3.18-0.82-2.28,3.88-1.53,5.36
				c1.01,1.99,2.63,3.55,4.13,5.16c1.71,1.85,3.22,3.86,4.52,6.02c2.36,3.95,3.95,8.34,4.73,12.87c0.43,2.47,0.59,4.99,0.5,7.5
				c-0.01,0.23-0.13,3.11-0.24,3.11c-0.03,0-1.46-2.67-1.69-3c-0.8-1.16-4.73-6.7-6.15-3.2c-0.6,1.49,1.11,3.34,1.74,4.58
				c1.26,2.48,2.32,5.06,3.2,7.7c1.65,4.96,2.62,10.13,2.87,15.34c0.03,0.7,0.22,7.29-0.11,7.31c-0.25,0.02-3.07-6.14-3.49-6.86
				c-0.65-1.12-1.49-3.43-2.87-3.9c-1.04-0.35-2,0.33-2.27,1.31c-0.23,0.85,0.11,1.96,0.18,2.81c0.1,1.4,0.13,2.8,0.08,4.21
				c-0.05,1.47-0.19,2.94-0.43,4.39c-0.06,0.38-0.85,3.62-0.79,3.65c-0.26-0.16-0.33-1.28-0.68-1.6c-0.27-0.25-0.67-0.42-1.04-0.46
				c-1.09-0.1-1.81,0.72-1.92,1.71c-0.21,1.92,0.87,4.46,1.17,6.38c0.43,2.7,0.69,5.43,0.71,8.17c0.01,2.35-0.17,4.72-0.66,7.03
				c-0.2,0.92-2.45,7.39-2.86,7.03c-1.13-0.98-0.94-9.02-4.45-6.95c-1.39,0.82-0.72,2.79-0.61,4.03c0.26,3,0.3,6.07-0.29,9.03
				c-0.46,2.32-1.3,4.57-2.58,6.56c-0.65,1.01-1.46,1.84-2.27,2.72c-0.86,0.92-0.52,1.05-0.96,0.25c-0.8-1.46-0.61-4.73-2.54-5.29
				c-1.04-0.3-1.76,0.32-2.17,1.22c-1.14,2.53-1.75,4.8-3.62,6.98c-3.39,3.95-8.16,6.33-12.84,8.39c-0.39,0.17-1.08,0.7-1.43,0.68
				c-0.51-0.02-0.17,0.05-0.65-0.46c-0.3-0.32-0.45-0.78-0.75-1.11c-0.79-0.87-1.65-1.04-2.63-0.37c-1.55,1.04-2.32,2.17-4.25,2.76
				c-1.93,0.59-3.97,0.76-5.97,0.94c-3.46,0.32-7.12,0.55-10.24,2.24c-1.81,0.98-3.13,2.83-5.04,3.58
				c-2.23,0.88-4.13-0.49-6.32-0.57c-4.37-0.14,0.35,4.58,1.2,5.72c0.19,0.26,1.01,1.31,0.88,1.59c-0.43,0.94-5.3,0.66-6.11,0.72
				c-5.67,0.43-11.35,0.86-17.02,1.29c-2.6,0.2-5.22,0.5-7.83,0.55c-2.55,0.05-4.98-0.8-7.53-0.78c-2.65,0.01-5.24,0.67-7.87,0.84
				c-3.2,0.2-6.38-0.21-9.53-0.75c-10.36-1.78-20.89-3.65-31.1-5.76c-7.42-1.53-10.91-9.52-14.18-15.5
				c-1.69-3.09-3.47-6.11-5.67-8.87c-0.35-0.43-1.04-0.33-1.4,0c-2.5,2.28-5,4.56-7.5,6.84c0.55,0.15,1.11,0.29,1.66,0.44
				c-0.78-4.7-2.06-9.24-3.84-13.66c-0.33-0.82-1.68-1.06-1.91,0c-0.6,2.73-1.21,5.46-1.81,8.19c0.64,0,1.28,0,1.91,0
				c-1.32-4.15-3.71-7.69-7.14-10.39c-0.6-0.47-1.77-0.25-1.69,0.7c0.24,2.93-0.27,5.64-1.63,8.25c0.62,0.17,1.23,0.33,1.85,0.5
				c-0.12-5.76-1.86-11.23-5.12-15.99c-0.45-0.66-1.62-0.65-1.81,0.24c-0.76,3.43-1.52,6.87-2.28,10.3c0.65,0.09,1.3,0.18,1.95,0.26
				c0.16-6.36-1.22-12.5-4.04-18.2c-0.32-0.65-1.39-0.65-1.71,0c-0.8,1.6-1.6,3.2-2.4,4.8c0.52-0.07,1.04-0.13,1.56-0.2
				c-2.11-2.4-3.06-5.45-2.62-8.63c0.09-0.68-0.25-1.19-0.96-1.26c-2.74-0.24-5.21,0.79-6.95,2.92c0.52,0.07,1.04,0.13,1.56,0.2
				c-1.91-3.57-2.95-7.34-3.14-11.38c-0.05-1.15-1.56-1.31-1.95-0.26c-0.75,2.04-1.84,3.75-3.33,5.32c0.56,0.23,1.13,0.47,1.69,0.7
				c0.28-5.7,0.55-11.4,0.83-17.1c0.05-0.93-1.08-1.21-1.69-0.7c-1.84,1.54-3.67,3.08-5.51,4.62c0.52,0.4,1.04,0.8,1.56,1.2
				c6.95-9.07,9.25-21.03,6.24-32.04c-0.25-0.93-1.67-0.96-1.91,0c-1.04,4.1-2.59,7.98-4.67,11.67c0.6,0.25,1.21,0.51,1.81,0.76
				c1.28-4.67,0.95-9.02-1.09-13.4c-2.29-4.94-5.21-9.31-6.45-14.71c-0.16-0.71-1.17-0.98-1.66-0.44c-1.87,2.06-4.24,3.13-7.02,3.13
				c0.29,0.5,0.57,1,0.86,1.49c5.13-6.8,8.7-14.7,10.23-23.1c0.39-2.13,1.36-6.19-1.4-7.26c-1.81-0.7-3.92,0.82-3.37,2.75
				c0.22,0.78,1.42,1.02,1.81,0.24c9.59-19.27,17.01-39.56,22.08-60.48c0.15-0.61-0.29-1.27-0.96-1.26
				c-9.37,0.15-17.77,6.05-21.2,14.75c0.6-0.08,1.21-0.16,1.81-0.24c-4.51-7.74,3.23-15.68,8.54-20.54
				c4.84-4.43,9.85-9.25,10.43-16.16c0.04-0.52-0.49-1.02-0.99-0.99c-2.26,0.1-4.53,0.21-6.79,0.31c0.33,0.33,0.66,0.66,0.99,0.99
				c-0.25-3.3,4.39-5.64,3.33-8.9c-0.61-1.88-3.14-3.14-4.99-2.56c0.37,0.49,0.75,0.97,1.12,1.46c4.19-7.49,8.42-15.63,7.71-24.47
				c-0.07-0.86-1.03-1.31-1.69-0.7c-4.07,3.73-8.69,6.71-13.78,8.84c0.25,0.6,0.51,1.21,0.76,1.81c5.73-4.18,9.93-9.85,12.24-16.56
				c0.2-0.59-0.34-1.29-0.96-1.26c-2.76,0.16-5.52,0.32-8.28,0.47c0.09,0.65,0.18,1.3,0.26,1.95c3.93-1.66,7.11-4.17,9.62-7.62
				c0.52-0.71-0.34-1.7-1.12-1.46c-6.55,2-13.28,2.95-20.14,2.82c0.17,0.62,0.33,1.23,0.5,1.85c6.36-3.29,12.64-6.75,18.82-10.37
				c0.63-0.37,0.65-1.35,0-1.71c-2.03-1.14-4.07-2.29-6.1-3.43c0,0.57,0,1.14,0,1.71c4.28-2.22,7.41-5.76,9.21-10.22
				c0.28-0.7-0.55-1.44-1.22-1.22c-3.58,1.2-7.2,1.62-10.96,1.29c0.23,0.56,0.47,1.13,0.7,1.69c3.05-2.46,4.77-4.93,6.59-8.37
				c0.36-0.67-0.09-1.47-0.86-1.49c-1.82-0.05-3.65-0.53-5.48-0.64c-3.36-0.19-5.88-1.15-7.29-4.4c-0.29,0.5-0.57,1-0.86,1.49
				c13.9-0.31,27.2-6.69,36.07-17.4c0.48-0.58,0.31-1.41-0.44-1.66c-5.49-1.78-10.14-5.24-13.41-9.99c-0.45,0.45-0.9,0.9-1.36,1.36
				c4.54,2.85,10.35,5.22,15.68,3.15c4.03-1.56,7.14-5.44,6.69-9.89c-0.05-0.51-0.41-1.02-0.99-0.99
				c-6.53,0.31-12.73-1.63-17.95-5.56c-0.33,0.57-0.67,1.14-1,1.71c10.25,4.54,22.1,3.95,31.8-1.69c0.57-0.33,0.64-1.1,0.2-1.56
				c-6.31-6.68-12.62-13.37-18.92-20.05c-0.4,0.52-0.8,1.04-1.2,1.56c6.23,4.53,13.13,7.94,20.51,10.16c1,0.3,1.59-0.95,0.97-1.66
				c-6.33-7.12-10.18-16.08-10.96-25.57c-0.65,0.09-1.3,0.18-1.95,0.26c3.57,9.23,10.62,16.68,19.72,20.61
				c0.93,0.4,2.15-0.76,1.2-1.56c-3.12-2.62-6.25-5.24-9.37-7.85c-0.97-0.81-2.37,0.55-1.4,1.4c5.24,4.59,13.19,6.32,19.98,5.22
				c0.61-0.1,0.93-0.97,0.59-1.46c-5.73-8.23-11.28-17.23-18.94-23.85c-0.4,0.52-0.8,1.04-1.2,1.56
				c11.53,5.24,21.85,12.51,33.03,18.39c0.7,0.37,1.77-0.26,1.46-1.12c-1.16-3.19-1.71-6.61-2.38-9.93
				c-0.96-4.79-1.96-9.56-3.24-14.27c-0.6,0.25-1.21,0.51-1.81,0.76c4.1,7.33,9.66,13.9,12.87,21.71c0.38,0.93,2.06,0.96,1.95-0.26
				c-0.87-9.47-2.04-18.36-5.77-27.2c-0.52,0.4-1.04,0.8-1.56,1.2c6.14,6.22,10.02,14.36,15.03,21.44c0.51,0.72,1.95,0.57,1.85-0.5
				c-0.5-5.16-0.89-10.34-1.62-15.47c-0.71-4.96-1.57-10.24-4.08-14.66c-0.57,0.33-1.14,0.67-1.71,1c2.03,2.98,3.99,6,5.84,9.1
				c0.97,1.63,1.86,3.3,2.79,4.96c0.43,0.76,0.77,1.53,1.69,1.78c2.08,0.55,2.58-1.57,2.86-3.07c0.65-3.47,1.24-6.9,1.19-10.45
				c-0.65,0.09-1.3,0.18-1.95,0.26c1.68,5.86,2.51,11.85,2.49,17.95c0,1.2,1.54,1.24,1.95,0.26c1.94-4.67,2.84-9.58,2.71-14.63
				c-0.65,0.09-1.3,0.18-1.95,0.26c1.81,5.06,3.62,10.11,5.43,15.17c0.29,0.81,1.33,0.98,1.81,0.24c1.21-1.86,2.85-3.4,4.03-5.25
				c1.13-1.77,1.32-3.94,1.56-5.98c0.13-1.1-1.77-1.37-1.95-0.26c-0.13,0.81-2.93,14.89,0.97,12.99c2.19-1.07,0.33-4.21-1.31-1.57
				c-0.59,0.95,0.78,2.03,1.56,1.2c2.62-2.78,4.47-5.97,5.57-9.62c-0.64,0-1.28,0-1.91,0c0.92,3.63,0.92,7.19-0.01,10.82
				c-0.32,1.24,1.58,1.76,1.91,0.53c2.17-8.08,7.43-13.67,14.91-17.2c-0.45-0.45-0.9-0.9-1.36-1.36c-2.3,4.15-4.6,8.3-6.9,12.45
				c-0.45,0.82,0.5,1.95,1.36,1.36c3.01-2.07,6.02-4.14,9.02-6.21c-0.45-0.45-0.9-0.9-1.36-1.36c-2.65,3.72-3.39,8.25-2.14,12.63
				C226.84,172.83,228.75,172.31,228.4,171.08L228.4,171.08z"/>
		</g>
	</g>
</g>
<g id="Layer_6">
	<g>
		<path class="st4" d="M210.74,203.21c-6.57-9.59-13.41-18.74-22.24-26.3c5.9,8.44,9.64,18.07,13.16,27.75
			c-2.29-3.98-5.61-5.86-9.68-7c0.8,1.92,2.45,4.34,2.22,7.18c-10.21-9.79-24.2-17.67-37.87-19.43
			c8.14,4.84,16.82,12.99,24.73,18.18c-14.01-2.78-28.57-2.7-42.55,0.23c7.7-0.87,15.64,0.49,22.61,3.88
			c-6.34,0.72-12.66,1.32-18.63,4.01c-5.87,2.65-11.51,6.08-15.54,11.78c4.83-0.89,8.12-1.22,12.29,0.94
			c-7.66,9.22-19.09,20.22-29.95,25.31c6.43,1.09,9.49,0.12,13.93-0.18c-1.61,6.05-6.15,9.61-10.73,14.57
			c-3.62,3.91-6.23,7.82-7.88,15.2c5.56-6.06,7.22-5.65,13.04-4.97c-3.8,2.62-9.12,10.71-8.48,15.29c3.02,0.07,4.55,4.14,3.33,6.91
			c-1.22,2.76-4.05,4.39-6.7,5.84c3.11,0.02,6.22,0.05,9.32,0.07c0.8,0.01,1.72,0.07,2.2,0.7c0.64,0.84,0.09,2.03-0.47,2.92
			c-3.66,5.87-7.31,11.75-10.97,17.62c4.01-1.3,7.53-4.06,9.76-7.64c2.21,10.7-1.77,22.45-10.03,29.6
			c6.22-2.68,11.85-6.7,16.39-11.71c-9.47,14.38-19.26,29.7-19.96,46.91c3.57-3.84,7.74-7.12,12.32-9.69
			c-3.69,14.96-7.38,29.93-11.06,44.89c4.92-4.77,9.31-10.08,13.06-15.82c-3.59,15.35-9.49,30.16-17.43,43.78
			c2.33-2.4,4.66-4.8,6.99-7.2c0.84,8.88-2.33,18.07-8.46,24.55c4.83,0.86,9.04-3.27,11.75-7.35s5.34-8.83,9.99-10.38
			c-0.31,6.15-7.03,9.93-9.24,15.68c-1.65,4.28-0.59,9.05-0.16,13.61c0.43,4.56-0.13,9.85-3.83,12.56l2.94,4.69
			c0.74,2.69,1.79,5.75,4.39,6.75c1.13,0.43,2.47,0.42,3.4,1.2c3.62,3.03-4.78,10.01-1,12.83c2.21,1.65,4.98-1.18,6.28-3.62
			c3.16,6.13,4.79,13.04,4.7,19.94c2.32-1.08,4.33-2.8,5.76-4.92c-0.26,5.21,1.7,10.48,5.28,14.27c-0.82-3.52-0.98-7.19-0.46-10.77
			c1.51,6.46,6.19,12.09,12.26,14.77c0.01,2.32,2.71,4.18,4.87,3.36c2.17-0.82,2.97-4,1.44-5.74c1.52,4.62,5.96,8.13,10.81,8.54
			c0.63-2.21,1.27-4.42,1.9-6.63c-0.3,3.1,2.5,5.81,5.52,6.54c3.03,0.73,6.19-0.01,9.21-0.75c7.03-1.72,14.06-3.44,21.08-5.17
			c-2.22,3.54-5.85,6.16-9.91,7.15c7.71,1.61,16.03,0.11,22.7-4.09c0.64,4.13,5.26,6.67,9.44,6.47s7.96-2.38,11.56-4.51
			c2.31,4.81,10.26,5.31,13.15,0.82c10.41,2.32,21.71,0.28,30.65-5.53c4.42,1.28,9.27,1.06,13.56-0.61
			c12.04-4.68,17.06-18.68,20.68-31.08c1.96-6.69,3.93-13.68,2.71-20.55c-2.18,4.62-0.9,10.62,2.97,13.95
			c4.59-8.09,5.08-18.37,1.28-26.85c1.59,3.38,4.34,6.19,7.68,7.87l-0.24-0.25c2.6-13.75-0.02-28.43-7.23-40.43
			c3.47-0.47,7.06-0.11,10.37,1.06c-2.68-4.46-7.27-7.74-12.36-8.82c2.35-2.24,4.71-4.48,7.06-6.73c-4.04,1.42-7.71-3.65-7.38-7.92
			s2.86-8.07,3.73-12.27c0.88-4.26,0-8.69-1.35-12.83c-2.72-8.33-7.37-16.02-13.48-22.29c-2.5-2.57-5.39-6.51-3.06-9.22
			c2.36,3.36,5.54,6.14,9.19,8.03c-0.35-9.89-3.3-19.67-8.47-28.1c2.95,2.06,6.52,3.23,10.12,3.29
			c-7.53-8.26-14.24-17.26-20.01-26.83c1.2-0.41,2.55-0.34,3.7,0.19c-2.42-9.35-6.22-18.35-11.25-26.6
			c2.18,0.01,3.95,1.64,5.81,2.77c1.86,1.13,4.65,1.61,5.92-0.16c2.17-3.02-3.06-6.07-3.98-9.68c2.97,2.85,7.26,4.27,11.34,3.73
			c-9.05-12.19-15.24-19.38-20.91-33.47c3.27,0.58,7.23-3.02,9.85-0.99c-15.2-7.47-5.5-12.6-4.87-25.47c0.05-1-10.27-16.99-17-17.83
			c-2.99-3.98-5.86-5.46-14.15-7.42c-10.54-4.15-11.63,1.35-25.67-0.14c7.12-9.39,20.02-8.9,27.41-8.41
			c-4.86-1.97-8.92-2.39-12.67-2.32c-3.75,0.07-7.64,1.1-11.05,2.67c-6.25,2.88-9.22,5-14.75,9.4c-2.5-8.47-5.39-16.82-8.67-25.03
			c2.47,6.91,3.6,14.28,3.32,21.61c-2.29-2.51-4.55-5.33-6.81-8.39c0.49,4,1.69,8.45,0.67,12.6L210.74,203.21z"/>
	</g>
</g>
<g id="Layer_10">
	<g>
		<path class="st3" d="M206.14,287.01L206.14,287.01c0,0,11.1-3.8,11.59-10.42c0.26-3.52-1.05-5.42-5.07-7.8
			c-4.92-2.9-11.24-1.04-11.77-0.84c-0.31,0.12-7.22,2.87-7.23,7.23C193.66,284.62,206.14,287.01,206.14,287.01z"/>
		<path class="st4" d="M206.25,275.46c0.74,0.46,2.43-0.73,3.28-1.97c0.33-0.48,1.18-1.71,0.66-2.63c-0.46-0.8-1.77-1-2.63-0.66
			C205.61,270.99,205.26,274.84,206.25,275.46z"/>
		<path class="st4" d="M202.31,275.46c0.95-0.75,1.71-2.13,1.31-2.63c-0.38-0.46-1.81-0.16-2.63,0.66
			c-0.82,0.82-1.13,2.25-0.66,2.63C200.77,276.46,201.8,275.87,202.31,275.46z"/>
	</g>
</g>
<g id="Layer_14">
	<g>
		<path class="st5" d="M140.99,280.45c-1.68-5.09,5.08-5.47,7.54-4.69c2.45,0.78,17.62,4.01,18.01,6.33s-5.21,8.43-8.71,8.59
			C154.33,290.84,142.32,284.5,140.99,280.45z"/>
		<path class="st5" d="M204.91,251.25c4.05-1.47,8.28,8.83,8.17,11.26c-0.11,2.43-11.31,2.37-13.94,0.71
			S200.75,252.76,204.91,251.25z"/>
		<path class="st5" d="M273.65,281.68c2.19-4.89-4.5-5.96-7.02-5.43c-2.52,0.53-17.94,2.19-18.57,4.45s4.33,8.92,7.79,9.44
			C259.32,290.65,271.92,285.56,273.65,281.68z"/>
	</g>
</g>
<g id="Layer_15">
	<g id="smile_1_">
		<g>
			<path class="st3" d="M206.09,287.3c1.6-0.08,2.89,0.04,4.14,0.24c1.24,0.23,2.43,0.39,3.54,1c1.11,0.62,2.27,1.59,3.58,1.78
				c1.29,0.19,2.62-0.12,3.89-0.69c0.63-0.26,1.27-0.56,1.9-0.76c0.63-0.23,1.27-0.36,1.9-0.54c1.27-0.34,2.52-0.72,3.83-0.84
				c2.62-0.21,5.29-0.13,8.25,0.79l0.12,0.49c-1.11,1.13-2.34,1.89-3.59,2.55c-1.26,0.64-2.57,1.11-3.9,1.43
				c-1.34,0.32-2.73,0.33-4.12,0.32c-0.7-0.01-1.39-0.01-2.09-0.1c-0.71-0.11-1.41-0.26-2.11-0.46c-1.4-0.39-2.76-0.69-4.15-0.61
				c-1.37,0.01-2.86,0.61-4.38,0.67c-0.74,0.01-1.48-0.12-2.16-0.39c-0.69-0.25-1.35-0.59-1.97-0.98c-1.23-0.82-2.35-1.89-2.97-3.47
				L206.09,287.3z"/>
		</g>
		<g>
			<path class="st3" d="M177.22,286.05c1.55-0.04,2.79,0.15,3.98,0.41c0.59,0.14,1.16,0.28,1.71,0.48c0.56,0.16,1.08,0.4,1.59,0.73
				c0.99,0.65,1.97,1.76,3.17,2.08c0.59,0.2,1.21,0.2,1.82,0.18c0.62-0.08,1.22-0.24,1.82-0.5c0.6-0.24,1.19-0.51,1.77-0.73
				c0.58-0.21,1.16-0.38,1.74-0.53c1.15-0.36,2.28-0.75,3.46-0.95c2.38-0.34,4.83-0.46,7.75,0.05l0.2,0.46
				c-0.42,0.66-0.91,1.19-1.44,1.67c-0.52,0.5-1.07,0.91-1.64,1.3c-1.15,0.76-2.38,1.34-3.67,1.73c-1.29,0.39-2.67,0.43-4.03,0.43
				c-1.36,0.04-2.75-0.19-4.09-0.68c-1.35-0.45-2.63-0.79-3.94-0.83c-1.31-0.04-2.8,0.4-4.22,0.29c-0.71-0.06-1.37-0.27-1.99-0.58
				c-0.62-0.3-1.21-0.67-1.75-1.1c-1.08-0.87-2.05-1.96-2.55-3.5L177.22,286.05z"/>
		</g>
		<path class="st6" d="M223.35,291.12c-2.9,9.18-10.19,15.66-17.78,14.99c-6.42-0.56-15.6-13.01-17.03-15.45
			c3.27,0.04,6.74,1.28,9.8,0.13c4.46-1.68,7.8-3.32,13.02-0.86C214.5,291.42,218.63,290.98,223.35,291.12z"/>
		<path class="st5" d="M214.46,295.16c1.26,1.29,2.23,5.27-0.48,7.19c-4.52,3.22-9.18,3.06-13.79,0.32
			c-1.24-0.74-2.43-2.03-2.55-4.12c-0.11-1.98,1.18-2.53,2.23-3.28c2.01-1.43,4.58-1.38,6.56,1.28c0.44,0.59,0.72,0.23,1.01-0.24
			C209.52,292.95,213.21,293.89,214.46,295.16z"/>
	</g>
</g>
<g id="eyes">
	<g>
		<g id="Base_4_">
			<path class="st3" d="M246.31,270.64c12.52,4.17,26.32-7.02,26.32-7.02s3.51-15.21-2.92-23.98c-6.43-8.77-16.96-11.11-23.4-9.94
				c-3.36,0.61-14.89,8.84-15.5,19.01C230.26,257.99,236.66,267.43,246.31,270.64z"/>
			<path class="st4" d="M270.34,246.56c1.46,7.95-6.85,21.07-17.62,21.07c-16.32,0-19.49-11.39-19.49-19.45
				c0-8.05,8.73-14.58,19.49-14.58S269,239.26,270.34,246.56z"/>
			<path class="st4" d="M242.63,264.29c0,0,1.97,5.25,9.2,3.94c7.22-1.31,11.17-11.17,11.17-11.17s-5.91,4.6-10.51,5.91
				C247.89,264.29,242.63,264.29,242.63,264.29z"/>
			<path class="st3" d="M164.63,271.37c-12.3,4.1-25.87-6.9-25.87-6.9s-3.45-14.95,2.87-23.57c6.32-8.62,16.67-10.92,23-9.77
				c3.31,0.6,14.64,8.69,15.23,18.68C180.41,258.93,174.12,268.2,164.63,271.37z"/>
			<path class="st4" d="M178.94,248.11c1.54,8.28-7.2,21.96-18.51,21.96c-17.15,0-20.48-11.87-20.48-20.27
				c0-8.4,9.17-15.2,20.48-15.2S177.53,240.51,178.94,248.11z"/>
			<path class="st4" d="M245.26,251.15c0,0,0.66-4.6-1.31-5.25s-4.6,5.25-4.6,5.25s-3.28,1.31-3.28,3.94s4.6,1.97,4.6,1.97
				s1.97,1.97,3.94-0.66C246.57,253.78,245.26,251.15,245.26,251.15z"/>
			<path class="st4" d="M233.63,246.56c0.54,1.18,2.81,1.41,3.87,0c0.84-1.11,0.89-3.19,0-3.94c-0.83-0.7-2.12,0.03-2.77,0.66
				C233.92,244.05,233.18,245.59,233.63,246.56z"/>
			<path class="st4" d="M142.73,248.58c0,0-1.31,8.54,1.31,12.48c2.63,3.94,10.51,5.91,10.51,5.91s-5.25-3.94-7.23-7.88
				C145.35,255.14,142.73,248.58,142.73,248.58z"/>
		</g>
		<path class="st3" d="M160.97,232.22c10.49,0.06,18.62,8.37,18.52,18.91c-0.1,10.29-8.39,18.4-18.75,18.34
			c-10.49-0.06-18.64-8.38-18.51-18.9C142.35,240.24,150.61,232.15,160.97,232.22z"/>
		<path class="st3" d="M251.18,230.85c9.93,0.06,18.03,8.46,18.02,18.68c-0.01,10.4-8.2,18.76-18.32,18.7
			c-9.94-0.06-17.98-8.4-18.01-18.68C232.84,239.19,241.07,230.79,251.18,230.85z"/>
		<path class="st7" d="M169.13,245.23c-2.07-1.28-3.48-0.55-4.55,1.44c-0.28,0.52-0.86,1.24-1.6,0.81c-0.35-0.2-0.58-0.96-0.53-1.42
			c0.23-2.14-0.73-3.22-2.77-3.65c-0.59-0.12-1.48-0.63-1.55-1.07c-0.13-0.85,0.75-1.38,1.48-1.54c1.85-0.39,2.68-1.3,2.28-3.26
			c-0.15-0.75-0.11-1.71,0.74-2.05c0.87-0.35,1.56,0.4,1.89,1.04c1.02,1.97,2.41,1.9,4.12,1.07c0.58-0.28,1.37-0.48,1.86,0.15
			c0.46,0.6,0.2,1.35-0.27,1.83c-1.52,1.56-1.45,2.97,0.11,4.47c0.44,0.42,0.84,1.23,0.36,1.8
			C170.44,245.16,169.71,245.1,169.13,245.23z"/>
		<path class="st8" d="M165.35,256.11c1.22-2.02,0.74-3.58-0.83-5.19c2.05-0.57,4.47,0.28,4.82-2.87c1.75,1.78,1.17,4.79,4.58,4.2
			c-1.7,1.7-3.64,2.63-2.67,5.62C169.18,256.33,167.61,255.21,165.35,256.11z"/>
		<path class="st9" d="M158.29,248.98c-0.21-1.22,1.88-0.22,2.12-1.49c0.69,0.79,1.81,1.52,1.93,2.39c0.09,0.65-1.11,1.48-1.74,2.22
			C159.87,251.1,156.75,252.27,158.29,248.98z"/>
		<path class="st10" d="M250.07,245.85c-0.39-2.24-0.33-4.7-3.51-5.19c-1.4-0.22-0.93-1.53,0.15-1.86c2.02-0.62,3.15-1.62,2.67-3.89
			c-0.09-0.45-0.07-1.08,0.59-1.26c0.7-0.19,1.26,0.17,1.58,0.71c1.01,1.7,2.29,2.1,4.1,1.22c0.46-0.22,1.4-0.15,1.73,0.18
			c0.43,0.43,0.08,1.18-0.34,1.67c-1.1,1.28-1.59,2.51-0.06,3.88c0.54,0.48,0.95,1.3,0.53,1.96c-0.46,0.71-1.42,0.47-1.98,0.14
			C252.61,241.66,252.44,245.48,250.07,245.85z"/>
		<path class="st11" d="M248.17,255c0.39-1.85,1.58-3.31-0.12-4.59c-0.4-0.3-0.11-1.28,0.46-1.07c1.98,0.72,2.97-0.54,4.16-2.7
			c0.26,2.92,1.44,4.13,3.82,4.77c-2.24,0.98-3.38,2.26-2.89,4.88C251.88,254.63,250.37,253.75,248.17,255z"/>
		<path class="st12" d="M243.2,243.71c-1.76-0.23-0.82,2.11-2.41,1.84c-1.42-0.24-2.15-0.96-2.23-2.49
			c-0.09-1.68,1.95-0.35,2.04-1.61C241.38,242.12,242.15,242.8,243.2,243.71z"/>
	</g>
</g>
<g id="Layer_24">
	<g>
		<path class="st13" d="M297.56,248.05l-13.93-1.99l-0.59-12.14l-16.69-2.89l-2.88-13.27l-10.14-14.46l-23.72,2.05l-15.22-10.06
			l2.56-16.35l-5.13-2.58l-22.93,2.58l0.61-2.74c0.03-0.14,3.04-13.61,3.95-19.29l0.21-1.32l1.29-0.31
			c16.47-3.99,32.01-6.02,46.19-6.02c24.06,0,42.96,5.69,56.2,16.92c19.28,16.36,29.93,48.44,30,90.34l0,1.93l-1.93,0.07
			c-6.16,0.22-15.12,6.86-15.21,6.92l-1.8,1.35L297.56,248.05z"/>
		<g>
			<path class="st3" d="M241.12,151.26c22.31,0,41.55,5.12,54.9,16.44c20.05,17.01,29.23,50.07,29.29,88.82
				c-6.88,0.25-16.33,7.32-16.33,7.32l-10.18-17.65l-13.25-1.9l-0.59-12.09l-16.94-2.93l-2.68-12.34l-11.04-15.73l-24.18,2.09
				l-13.57-8.97l2.58-16.53l-6.97-3.51l-20.74,2.34c0,0,3.05-13.61,3.97-19.41C211.41,153.35,226.89,151.26,241.12,151.26
				 M241.12,147.26c-14.34,0-30.04,2.04-46.66,6.08l-2.59,0.63l-0.42,2.63c-0.89,5.61-3.89,19.03-3.92,19.16l-1.23,5.48l5.58-0.63
				l19.55-2.2l3.3,1.66l-2.13,13.65l-0.4,2.54l2.14,1.42l13.57,8.97l1.16,0.77l1.39-0.12l21.88-1.89l9.25,13.18l2.51,11.56
				l0.57,2.63l2.65,0.46l13.78,2.38l0.43,8.89l0.16,3.3l3.27,0.47l11.33,1.62l9.2,15.96l2.25,3.9l3.61-2.7
				c3.28-2.44,10.01-6.38,14.08-6.53l3.86-0.14l-0.01-3.86c-0.06-42.5-10.97-75.12-30.7-91.87
				C285.01,153.12,265.67,147.26,241.12,147.26L241.12,147.26z"/>
		</g>
	</g>
	<path class="st2" d="M291.99,187.35c6.55-16.94-11.13-28.99-31.83-31.36c-25.76-2.95-59.57,2.49-48.98,2.69
		C254.33,159.51,280.89,168.86,291.99,187.35z"/>
</g>
<g id="Layer_25">
	<g>
		<path class="st13" d="M213.88,564.54c-56.59-0.04-98.89-21.17-125.71-62.81c-26.51-41.15-29.34-90.48-29.32-109.78
			c0.02-32.05,7.41-67.89,21.37-103.65l4.09-10.48l-0.27,13.22l5.21,15.75l8.42,0.94l6.61,14.27h17.43l10.94-3.98l8.22,3.83
			l3.86,11.54l7.65,6.27l18.49,0.59l16.18-8.96l50.49,13.23l9.51-14.83l26.81,3.77l9.48-17.67l1.72,3.48
			c3.83,7.75,7.88,16.1,11.6,24.74c1.1-0.36,2.36-0.55,3.76-0.55c5.85,0,12.64,3.2,12.92,3.34l0.97,0.46l0.15,1.07
			c0.06,0.45,1.45,10.45,1.63,16.4c1.18-0.19,2.32-0.29,3.4-0.29c8.17,0,10.69,5.36,10.79,5.59l2.95,6.53l2.31,3.73l12.08-0.53
			l2.83-1.81l1.12,0.9c0.3,0.24,7.42,6.11,7.42,17.82c0,43.94-8.23,80.07-24.46,107.4C310.72,544.19,270.12,564.54,213.88,564.54
			L213.88,564.54z"/>
		<g>
			<path class="st3" d="M82.08,289.03l-0.05,2.32l5.72,17.29l8.58,0.96L103,324h19.06l10.5-3.82l6.69,3.12l3.77,11.27l8.63,7.07
				l19.72,0.63l15.96-8.83l51.12,13.4l9.61-14.97l26.92,3.79l8.3-15.48c4.18,8.46,8.28,16.97,11.99,25.64
				c0.15,0.34,0.49,0.48,0.83,0.48c0.19,0,0.39-0.04,0.55-0.12c1.11-0.5,2.41-0.7,3.79-0.7c5.46,0,12.07,3.14,12.07,3.14
				s1.63,11.69,1.63,17.3c0,0.61,0.49,1,1.04,1c0.08,0,0.16-0.01,0.23-0.02c1.53-0.31,2.89-0.45,4.1-0.45
				c6.97,0,8.97,4.41,8.97,4.41l3,6.65l3,4.83l13.79-0.6l2.07-1.33c0,0,6.68,5.37,6.68,16.26c0,62.51-16.77,165.87-143.12,165.87v0
				C87.23,562.45,60.81,454.45,60.85,391.95C60.87,358.79,68.9,322.81,82.08,289.03 M86.54,266.61l-8.18,20.96
				c-14.05,35.99-21.48,72.09-21.51,104.38c-0.01,12.56,1.06,32.12,6.19,53.93c5.05,21.46,12.94,40.62,23.45,56.94
				c12.53,19.45,28.72,34.7,48.12,45.33c22.24,12.18,48.91,18.37,79.27,18.39c56.99,0,98.17-20.68,122.38-61.45
				C352.68,477.45,361,440.97,361,396.67c0-12.66-7.83-19.11-8.17-19.38l-2.24-1.8l-2.42,1.55l-1.16,0.75l-10.37,0.45l-1.62-2.62
				l-2.89-6.41c-1.14-2.52-5.08-6.77-12.62-6.77c-0.49,0-0.99,0.02-1.5,0.05c-0.38-6.04-1.49-14.04-1.54-14.44l-0.3-2.13l-1.94-0.93
				c-0.76-0.36-7.6-3.53-13.78-3.53c-0.91,0-1.78,0.07-2.59,0.21c-3.56-8.12-7.36-15.97-10.97-23.28l-3.44-6.97l-3.67,6.85
				l-6.98,13.02l-24.16-3.4l-2.54-0.36l-1.38,2.16l-8.04,12.53l-48.31-12.66l-1.55-0.41l-1.4,0.78l-15,8.3l-17.26-0.55l-6.68-5.48
				l-3.41-10.18l-0.55-1.63l-1.56-0.73l-6.7-3.12l-1.5-0.7l-1.56,0.57l-9.83,3.58h-15.8l-5.6-12.09l-0.95-2.04l-2.24-0.25
				l-6.03-0.68l-4.7-14.2l0.03-1.63L86.54,266.61L86.54,266.61z"/>
		</g>
	</g>
	<path class="st2" d="M81.82,352.41c-16.08,103.7,27.34,177.53,78.2,192.05c63.3,18.08,146.23-19.32,120.34-16.5
		C168.55,540.14,90.9,487.64,81.82,352.41z"/>
</g>
<g id="Layer_27">
	<g>
		<path class="st4" d="M251.34,194.49c-3.75,0.07-7.64,1.1-11.05,2.67c-6.25,2.88-9.22,5-14.75,9.4c-2.5-8.47-5.39-16.82-8.67-25.03
			c2.47,6.91,3.6,14.28,3.32,21.61c-2.29-2.51-4.55-5.33-6.81-8.39c0.49,4,1.69,8.45,0.67,12.6l-3.27-4.37
			c-6.57-9.59-13.41-18.74-22.24-26.3c5.9,8.44,9.64,18.07,13.16,27.75l6.34,9.46l24.11,2.69l19.54-1.91
			c-10.54-4.15-1.05-7.95-15.09-9.44c7.12-9.39,20.02-8.9,27.41-8.41C259.15,194.84,255.09,194.42,251.34,194.49"/>
	</g>
</g>
<g id="hand_right">
	<g>
		<path class="st4" d="M230.67,333.16c0.86,4.35,2.5,8.57,4.77,12.38c2.86,4.82,13.25,11.75,18.68,8.89
			c4.65-2.45,7.68-12.5,6.06-20.63c-0.51-2.55-2.89-8.13-5.17-11.42"/>
		<g>
			<path class="st3" d="M229.23,333.55c1.46,6.92,4.31,13.7,10.03,18.1c3.94,3.03,10.36,6.66,15.4,4.17
				c5.23-2.59,7-10.07,7.39-15.35c0.5-6.78-2-13.29-5.74-18.86c-1.07-1.6-3.67-0.1-2.59,1.51c2.98,4.45,5.36,9.67,5.41,15.09
				c0.04,4.55-1.04,12.29-5.55,14.79c-4.11,2.28-10.17-1.75-13.23-4.31c-4.74-3.96-6.97-10.05-8.22-15.95
				C231.72,330.87,228.83,331.67,229.23,333.55L229.23,333.55z"/>
		</g>
	</g>
</g>
<g id="hand_left">
	<g>
		<path class="st4" d="M177.17,333.16c-3.3,15.08-10.07,21.27-12.15,23.53c-0.57,0.62-1.17,1.23-1.93,1.61
			c-1.31,0.64-3.43,1.91-4.68,1.77c-1.96-0.23-4.81-2.97-6.02-5.13c-3.2-5.72-2.87-15.38-2.3-21.81"/>
		<g>
			<path class="st3" d="M175.72,332.76c-1.94,8.59-5.48,16.26-11.56,22.65c-1.69,1.77-4.8,3.99-7.15,2.41
				c-2.54-1.71-3.98-4.46-4.74-7.34c-1.49-5.6-1.16-11.64-0.67-17.36c0.17-1.92-2.84-1.91-3,0c-0.57,6.67-0.97,14.08,1.52,20.44
				c1.07,2.74,2.91,5.2,5.38,6.84c2.67,1.78,4.86,1,7.54-0.4c3.28-1.73,5.97-5.23,8.06-8.25c3.77-5.45,6.07-11.77,7.53-18.2
				C179.04,331.68,176.15,330.88,175.72,332.76L175.72,332.76z"/>
		</g>
	</g>
</g>
</svg>
